<?xml version="1.0" encoding="UTF-8"?>
<svg width="340px" height="340px" viewBox="0 0 340 340" version="1.1" xmlns="http://www.w3.org/2000/svg" xmlns:xlink="http://www.w3.org/1999/xlink">
    <!-- Generator: Sketch 50.2 (55047) - http://www.bohemiancoding.com/sketch -->
    <title>Artboard Copy 12</title>
    <desc>Created with Sketch.</desc>
    <defs></defs>
    <g id="Artboard-Copy-12" stroke="none" stroke-width="1" fill="none" fill-rule="evenodd">
        <g id="Rey" transform="translate(28.000000, 49.000000)" fill="#5071FE">
            <g id="Group-4" fill-rule="nonzero">
                <g id="Group-6" transform="translate(49.000000, 57.000000)">
                    <path d="M200.673,61.116 C205.001,63.318 207.647,67.8 207.545,72.599 C209.685,72.58 211.825,72.561 213.965,72.544 C213.885,67.766 216.53,63.31 220.837,61.116 C226.558,58.209 230.388,52.001 230.388,40.565 L230.388,3.148 C230.39,1.677 229.196,0.485 227.72,0.485 C226.167,0.485 224.906,1.744 224.906,3.304 L224.906,37.982 C224.906,39.547 223.64,40.813 222.077,40.813 C220.513,40.813 219.248,39.547 219.248,37.982 L219.248,3.304 C219.248,1.744 217.985,0.485 216.434,0.485 L216.4,0.485 C214.846,0.485 213.587,1.744 213.587,3.304 L213.587,37.982 C213.587,39.547 212.321,40.813 210.756,40.813 C209.191,40.813 207.927,39.547 207.927,37.982 L207.927,3.304 C207.927,1.744 206.666,0.485 205.113,0.485 L205.079,0.485 C203.526,0.485 202.266,1.744 202.266,3.304 L202.266,37.982 C202.266,39.547 201,40.813 199.437,40.813 C197.872,40.813 196.605,39.547 196.605,37.982 L196.605,3.304 C196.605,1.744 195.344,0.485 193.791,0.485 C192.317,0.485 191.121,1.677 191.121,3.148 L191.121,40.565 C191.121,52 194.952,58.209 200.673,61.116 Z" id="Shape"></path>
                    <path d="M205.896,47.934 C206.923,54.141 207.472,60.507 207.472,67 C207.472,131.222 155.223,183.471 91.001,183.471 C57.394,183.471 27.072,169.158 5.794,146.315 C4.659,145.096 2.804,144.897 1.463,145.885 L1.41,145.924 C-0.162,147.083 -0.353,149.348 0.977,150.777 C23.455,174.915 55.493,190.038 91,190.038 C158.844,190.038 214.039,134.843 214.039,67 C214.039,60.827 213.571,54.763 212.688,48.832 C210.354,48.808 208.078,48.5 205.896,47.934 Z" id="Shape"></path>
                </g>
                <g id="Group-5">
                    <path d="M30.327,125.588 C26.121,123.447 23.51,119.15 23.461,114.503 C21.319,114.42 19.176,114.35 17.034,114.288 C17.065,119.017 14.432,123.414 10.165,125.588 C4.444,128.495 0.613,134.703 0.613,146.139 C0.613,163.491 11.357,186.218 20.247,186.218 C28.686,186.218 39.88,163.49 39.88,146.139 C39.879,134.704 36.05,128.495 30.327,125.588 Z" id="Shape"></path>
                    <path d="M140,0.962 C72.156,0.962 16.962,56.157 16.962,124.001 C16.962,133.193 17.989,142.147 19.911,150.767 C22.584,151.469 25.113,152.556 27.44,153.957 C24.606,143.325 23.24,132.1 23.581,120.512 C25.384,59.294 75.114,9.478 136.329,7.586 C167.762,6.614 196.544,18.173 218.053,37.629 C219.205,38.671 220.919,38.782 222.171,37.862 L222.225,37.823 C223.89,36.6 224,34.16 222.468,32.774 C200.631,13.015 171.698,0.962 140,0.962 Z" id="Shape"></path>
                </g>
            </g>
            <path d="M75.028,118.611 L70.573,118.611 L65.689,110.394 L61.861,110.394 L61.861,118.611 L58,118.611 L58,96.6 L67.669,96.6 C72.025,96.6 74.863,99.438 74.863,103.497 C74.863,107.424 72.289,109.536 69.649,109.965 L75.028,118.611 Z M67.141,106.995 C69.319,106.995 70.903,105.609 70.903,103.497 C70.903,101.385 69.319,99.999 67.141,99.999 L61.861,99.999 L61.861,106.995 L67.141,106.995 Z M93.805,118.611 L78.724,118.611 L78.724,96.6 L93.805,96.6 L93.805,99.999 L82.585,99.999 L82.585,105.708 L93.574,105.708 L93.574,109.107 L82.585,109.107 L82.585,115.212 L93.805,115.212 L93.805,118.611 Z M107.863,118.611 L104.002,118.611 L104.002,109.47 L95.455,96.6 L99.877,96.6 L105.949,106.038 L111.955,96.6 L116.377,96.6 L107.863,109.47 L107.863,118.611 Z M136.705,118.611 L131.953,118.611 L124.561,109.338 L122.647,111.582 L122.647,118.611 L118.786,118.611 L118.786,96.6 L122.647,96.6 L122.647,107.094 L131.26,96.6 L136.045,96.6 L127.102,106.995 L136.705,118.611 Z M143.041,119.007 C140.764,119.007 138.751,118.347 137.2,116.697 L138.982,113.76 C139.873,114.717 141.061,115.575 142.744,115.575 C145.12,115.575 146.605,113.991 146.605,111.582 L146.605,96.6 L150.466,96.6 L150.466,111.648 C150.466,116.664 147.298,119.007 143.041,119.007 Z M174.952,118.611 L170.563,118.611 L168.946,114.387 L158.848,114.387 L157.231,118.611 L152.842,118.611 L161.488,96.6 L166.306,96.6 L174.952,118.611 Z M167.857,110.988 L163.897,100.494 L159.937,110.988 L167.857,110.988 Z M188.515,118.611 L183.697,118.611 L175.051,96.6 L179.44,96.6 L186.106,114.42 L192.772,96.6 L197.161,96.6 L188.515,118.611 Z M203.431,118.611 L199.57,118.611 L199.57,96.6 L203.431,96.6 L203.431,118.611 Z M207.457,90 L202.012,94.752 L199.537,94.752 L204.157,90 L207.457,90 Z M226.036,118.611 L221.284,118.611 L213.892,109.338 L211.978,111.582 L211.978,118.611 L208.117,118.611 L208.117,96.6 L211.978,96.6 L211.978,107.094 L220.591,96.6 L225.376,96.6 L216.433,106.995 L226.036,118.611 Z M77.353,164.611 L72.79,164.611 L72.79,138.598 L90.613,138.598 L90.613,142.615 L77.353,142.615 L77.353,149.362 L90.34,149.362 L90.34,153.379 L77.353,153.379 L77.353,164.611 Z M106.837,165.079 C99.037,165.079 93.538,159.385 93.538,151.624 C93.538,143.863 99.037,138.169 106.837,138.169 C114.637,138.169 120.136,143.863 120.136,151.624 C120.136,159.385 114.637,165.079 106.837,165.079 Z M106.837,161.023 C112.063,161.023 115.456,156.967 115.456,151.624 C115.456,146.242 112.063,142.225 106.837,142.225 C101.572,142.225 98.218,146.242 98.218,151.624 C98.218,156.967 101.572,161.023 106.837,161.023 Z M136.672,165.079 C128.872,165.079 123.373,159.385 123.373,151.624 C123.373,143.863 128.872,138.169 136.672,138.169 C144.472,138.169 149.971,143.863 149.971,151.624 C149.971,159.385 144.472,165.079 136.672,165.079 Z M136.672,161.023 C141.898,161.023 145.291,156.967 145.291,151.624 C145.291,146.242 141.898,142.225 136.672,142.225 C131.407,142.225 128.053,146.242 128.053,151.624 C128.053,156.967 131.407,161.023 136.672,161.023 Z M164.05,164.611 L154.378,164.611 L154.378,138.598 L164.05,138.598 C172.162,138.598 177.661,143.98 177.661,151.624 C177.661,159.268 172.162,164.611 164.05,164.611 Z M164.05,160.594 C169.705,160.594 172.981,156.538 172.981,151.624 C172.981,146.593 169.861,142.615 164.05,142.615 L158.941,142.615 L158.941,160.594 L164.05,160.594 Z M186.631,164.611 L182.068,164.611 L182.068,138.598 L186.631,138.598 L186.631,164.611 Z M209.992,164.611 L192.169,164.611 L192.169,138.598 L209.992,138.598 L209.992,142.615 L196.732,142.615 L196.732,149.362 L209.719,149.362 L209.719,153.379 L196.732,153.379 L196.732,160.594 L209.992,160.594 L209.992,164.611 Z" id="REYKJAVÃK-FOODIE"></path>
        </g>
    </g>
</svg>