<svg viewBox="0 0 320 320" xmlns="http://www.w3.org/2000/svg">
  <g transform="translate(20, 37)" fill="#5071FE" fill-rule="nonzero">
    <g transform="translate(49, 57)">
      <path d="M200.673,61.116 C205.001,63.318 207.647,67.8 207.545,72.599 C209.685,72.58 211.825,72.561 213.965,72.544 C213.885,67.766 216.53,63.31 220.837,61.116 C226.558,58.209 230.388,52.001 230.388,40.565 L230.388,3.148 C230.39,1.677 229.196,0.485 227.72,0.485 C226.167,0.485 224.906,1.744 224.906,3.304 L224.906,37.982 C224.906,39.547 223.64,40.813 222.077,40.813 C220.513,40.813 219.248,39.547 219.248,37.982 L219.248,3.304 C219.248,1.744 217.985,0.485 216.434,0.485 L216.4,0.485 C214.846,0.485 213.587,1.744 213.587,3.304 L213.587,37.982 C213.587,39.547 212.321,40.813 210.756,40.813 C209.191,40.813 207.927,39.547 207.927,37.982 L207.927,3.304 C207.927,1.744 206.666,0.485 205.113,0.485 L205.079,0.485 C203.526,0.485 202.266,1.744 202.266,3.304 L202.266,37.982 C202.266,39.547 201,40.813 199.437,40.813 C197.872,40.813 196.605,39.547 196.605,37.982 L196.605,3.304 C196.605,1.744 195.344,0.485 193.791,0.485 C192.317,0.485 191.121,1.677 191.121,3.148 L191.121,40.565 C191.121,52 194.952,58.209 200.673,61.116 Z"/>
      <path d="M205.896,47.934 C206.923,54.141 207.472,60.507 207.472,67 C207.472,131.222 155.223,183.471 91.001,183.471 C57.394,183.471 27.072,169.158 5.794,146.315 C4.659,145.096 2.804,144.897 1.463,145.885 L1.41,145.924 C-0.162,147.083 -0.353,149.348 0.977,150.777 C23.455,174.915 55.493,190.038 91,190.038 C158.844,190.038 214.039,134.843 214.039,67 C214.039,60.827 213.571,54.763 212.688,48.832 C210.354,48.808 208.078,48.5 205.896,47.934 Z"/>
    </g>
    <g>
      <path d="M30.327,125.588 C26.121,123.447 23.51,119.15 23.461,114.503 C21.319,114.42 19.176,114.35 17.034,114.288 C17.065,119.017 14.432,123.414 10.165,125.588 C4.444,128.495 0.613,134.703 0.613,146.139 C0.613,163.491 11.357,186.218 20.247,186.218 C28.686,186.218 39.88,163.49 39.88,146.139 C39.879,134.704 36.05,128.495 30.327,125.588 Z"/>
      <path d="M140,0.962 C72.156,0.962 16.962,56.157 16.962,124.001 C16.962,133.193 17.989,142.147 19.911,150.767 C22.584,151.469 25.113,152.556 27.44,153.957 C24.606,143.325 23.24,132.1 23.581,120.512 C25.384,59.294 75.114,9.478 136.329,7.586 C167.762,6.614 196.544,18.173 218.053,37.629 C219.205,38.671 220.919,38.782 222.171,37.862 L222.225,37.823 C223.89,36.6 224,34.16 222.468,32.774 C200.631,13.015 171.698,0.962 140,0.962 Z"/>
    </g>
  </g>
</svg>
